<?xml version="1.0" standalone="no"?>
<!DOCTYPE svg PUBLIC "-//W3C//DTD SVG 20010904//EN"
 "http://www.w3.org/TR/2001/REC-SVG-20010904/DTD/svg10.dtd">
<svg version="1.0" xmlns="http://www.w3.org/2000/svg"
 width="1024.000000pt" height="1024.000000pt" viewBox="0 0 1024.000000 1024.000000"
 preserveAspectRatio="xMidYMid meet">
<metadata>
Created by potrace 1.11, written by Peter Selinger 2001-2013
</metadata>
<g transform="translate(0.000000,1024.000000) scale(0.100000,-0.100000)"
fill="#000000" stroke="none">
<path d="M0 5120 l0 -5120 5120 0 5120 0 0 5120 0 5120 -5120 0 -5120 0 0
-5120z m5537 2610 c541 -70 1016 -278 1326 -581 87 -85 108 -110 105 -129 -2
-18 -81 -86 -303 -262 -165 -131 -305 -238 -310 -238 -6 0 -44 34 -85 76 -151
152 -308 249 -525 324 -313 107 -625 127 -957 59 -142 -28 -266 -72 -413 -145
-420 -208 -732 -575 -884 -1039 -72 -222 -101 -413 -101 -678 0 -273 35 -504
111 -732 93 -280 222 -489 423 -690 147 -147 256 -226 431 -310 261 -126 571
-186 875 -170 430 22 758 163 1044 447 76 76 125 117 134 113 8 -3 156 -105
328 -226 210 -148 314 -226 314 -238 0 -25 -173 -205 -289 -302 -325 -272
-730 -451 -1161 -513 -520 -76 -1090 -16 -1539 161 -603 237 -1055 651 -1331
1218 -95 193 -140 313 -186 493 -148 579 -118 1243 81 1757 351 907 1141 1491
2180 1609 193 22 544 20 732 -4z"/>
</g>
</svg>
